<svg width="47" height="47" viewBox="0 0 47 47" fill="none" xmlns="http://www.w3.org/2000/svg">
<rect width="47" height="47" rx="20" fill="white"/>
<rect width="47" height="47" rx="20" fill="url(#paint0_linear_2017_377)"/>
<g clip-path="url(#paint1_diamond_2017_377_clip_path)" data-figma-skip-parse="true"><g transform="matrix(0.0363182 0.0260636 -0.0260636 0.0363182 -14.9545 9.82727)"><rect x="0" y="0" width="1622.74" height="998.585" fill="url(#paint1_diamond_2017_377)" opacity="0.54" shape-rendering="crispEdges"/><rect x="0" y="0" width="1622.74" height="998.585" transform="scale(1 -1)" fill="url(#paint1_diamond_2017_377)" opacity="0.54" shape-rendering="crispEdges"/><rect x="0" y="0" width="1622.74" height="998.585" transform="scale(-1 1)" fill="url(#paint1_diamond_2017_377)" opacity="0.54" shape-rendering="crispEdges"/><rect x="0" y="0" width="1622.74" height="998.585" transform="scale(-1)" fill="url(#paint1_diamond_2017_377)" opacity="0.54" shape-rendering="crispEdges"/></g></g><rect width="47" height="47" rx="20" data-figma-gradient-fill="{&#34;type&#34;:&#34;GRADIENT_DIAMOND&#34;,&#34;stops&#34;:[{&#34;color&#34;:{&#34;r&#34;:1.0,&#34;g&#34;:1.0,&#34;b&#34;:1.0,&#34;a&#34;:1.0},&#34;position&#34;:0.0},{&#34;color&#34;:{&#34;r&#34;:1.0,&#34;g&#34;:1.0,&#34;b&#34;:1.0,&#34;a&#34;:0.0},&#34;position&#34;:1.0}],&#34;stopsVar&#34;:[{&#34;color&#34;:{&#34;r&#34;:1.0,&#34;g&#34;:1.0,&#34;b&#34;:1.0,&#34;a&#34;:1.0},&#34;position&#34;:0.0},{&#34;color&#34;:{&#34;r&#34;:1.0,&#34;g&#34;:1.0,&#34;b&#34;:1.0,&#34;a&#34;:0.0},&#34;position&#34;:1.0}],&#34;transform&#34;:{&#34;m00&#34;:72.636360168457031,&#34;m01&#34;:-52.127265930175781,&#34;m02&#34;:-25.209095001220703,&#34;m10&#34;:52.127265930175781,&#34;m11&#34;:72.636360168457031,&#34;m12&#34;:-52.554542541503906},&#34;opacity&#34;:0.54000002145767212,&#34;blendMode&#34;:&#34;NORMAL&#34;,&#34;visible&#34;:true}"/>
<g clip-path="url(#clip0_2017_377)">
<path d="M29.5 12H18.5C16.019 12 14 14.019 14 16.5V32.5C14 34.43 15.57 36 17.5 36H29.5C31.981 36 34 33.981 34 31.5V16.5C34 14.019 31.981 12 29.5 12ZM33 16.5V29H19V13H24V21.848C24 22.35 24.307 22.778 24.782 22.939C25.258 23.099 25.761 22.946 26.066 22.547L27 21.324L27.934 22.547C28.24 22.949 28.754 23.098 29.218 22.939C29.693 22.778 30 22.35 30 21.848V13.036C31.694 13.279 33 14.74 33 16.5ZM25 13H29V21.848C29 21.938 28.944 21.975 28.897 21.992C28.851 22.007 28.783 22.012 28.729 21.941L27.398 20.198C27.209 19.95 26.793 19.95 26.603 20.198L25.272 21.941C25.216 22.013 25.149 22.008 25.104 21.993C25.057 21.977 25.001 21.939 25.001 21.849V13H25ZM15 16.5C15 14.74 16.306 13.279 18 13.036V29H17.5C16.522 29 15.636 29.404 15 30.053V16.5ZM29.5 35H17.5C14.214 34.941 14.216 30.058 17.5 30H33V31.5C33 33.43 31.43 35 29.5 35Z" fill="white"/>
</g>
<defs>
<clipPath id="paint1_diamond_2017_377_clip_path"><rect width="47" height="47" rx="20"/></clipPath><linearGradient id="paint0_linear_2017_377" x1="28.1659" y1="-1.77072e-06" x2="72.0448" y2="57.5011" gradientUnits="userSpaceOnUse">
<stop offset="0.193005" stop-color="#3496FF"/>
<stop offset="0.711667" stop-color="#1170DC"/>
</linearGradient>
<linearGradient id="paint1_diamond_2017_377" x1="0" y1="0" x2="500" y2="500" gradientUnits="userSpaceOnUse">
<stop stop-color="white"/>
<stop offset="1" stop-color="white" stop-opacity="0"/>
</linearGradient>
<clipPath id="clip0_2017_377">
<rect width="24" height="24" fill="white" transform="translate(12 12)"/>
</clipPath>
</defs>
</svg>
