<svg width="28" height="28" viewBox="0 0 28 28" fill="none" xmlns="http://www.w3.org/2000/svg">
<g clip-path="url(#clip0_2022_155)">
<path d="M20.4167 12.8788C16.2353 12.8788 12.8333 16.2808 12.8333 20.4622C12.8333 24.619 16.2353 28 20.4167 28C24.598 28 28 24.598 28 20.4167C28 16.2598 24.598 12.8788 20.4167 12.8788ZM20.4167 26.8333C16.8793 26.8333 14 23.975 14 20.4622C14 16.9237 16.8793 14.0455 20.4167 14.0455C23.954 14.0455 26.8333 16.9038 26.8333 20.4167C26.8333 23.9552 23.954 26.8333 20.4167 26.8333ZM21.9963 21.1703C22.2238 21.3978 22.2238 21.7677 21.9963 21.9952C21.882 22.1095 21.7327 22.1655 21.5833 22.1655C21.434 22.1655 21.2847 22.1083 21.1703 21.9952L20.0037 20.8285C19.894 20.7188 19.8333 20.5707 19.8333 20.4155V18.0822C19.8333 17.7602 20.0947 17.4988 20.4167 17.4988C20.7387 17.4988 21 17.7602 21 18.0822V20.174L21.9963 21.1703ZM22.75 2.33333H21V0.583333C21 0.261333 20.7387 0 20.4167 0C20.0947 0 19.8333 0.261333 19.8333 0.583333V2.33333H8.16667V0.583333C8.16667 0.261333 7.90533 0 7.58333 0C7.26133 0 7 0.261333 7 0.583333V2.33333H5.25C2.3555 2.33333 0 4.68883 0 7.58333V22.75C0 25.6445 2.3555 28 5.25 28H12.25C12.572 28 12.8333 27.7387 12.8333 27.4167C12.8333 27.0947 12.572 26.8333 12.25 26.8333H5.25C2.99833 26.8333 1.16667 25.0017 1.16667 22.75V10.5H26.8333V12.25C26.8333 12.572 27.0947 12.8333 27.4167 12.8333C27.7387 12.8333 28 12.572 28 12.25V7.58333C28 4.68883 25.6445 2.33333 22.75 2.33333ZM1.16667 9.33333V7.58333C1.16667 5.33167 2.99833 3.5 5.25 3.5H22.75C25.0017 3.5 26.8333 5.33167 26.8333 7.58333V9.33333H1.16667Z" fill="#8B8B8B"/>
</g>
<defs>
<clipPath id="clip0_2022_155">
<rect width="28" height="28" fill="white"/>
</clipPath>
</defs>
</svg>
