<svg width="47" height="47" viewBox="0 0 47 47" fill="none" xmlns="http://www.w3.org/2000/svg">
<rect width="47" height="47" rx="20" fill="white"/>
<rect width="47" height="47" rx="20" fill="url(#paint0_linear_2017_398)"/>
<g clip-path="url(#paint1_diamond_2017_398_clip_path)" data-figma-skip-parse="true"><g transform="matrix(0.0363182 0.0260636 -0.0260636 0.0363182 -14.9545 9.82727)"><rect x="0" y="0" width="1622.74" height="998.585" fill="url(#paint1_diamond_2017_398)" opacity="0.54" shape-rendering="crispEdges"/><rect x="0" y="0" width="1622.74" height="998.585" transform="scale(1 -1)" fill="url(#paint1_diamond_2017_398)" opacity="0.54" shape-rendering="crispEdges"/><rect x="0" y="0" width="1622.74" height="998.585" transform="scale(-1 1)" fill="url(#paint1_diamond_2017_398)" opacity="0.54" shape-rendering="crispEdges"/><rect x="0" y="0" width="1622.74" height="998.585" transform="scale(-1)" fill="url(#paint1_diamond_2017_398)" opacity="0.54" shape-rendering="crispEdges"/></g></g><rect width="47" height="47" rx="20" data-figma-gradient-fill="{&#34;type&#34;:&#34;GRADIENT_DIAMOND&#34;,&#34;stops&#34;:[{&#34;color&#34;:{&#34;r&#34;:1.0,&#34;g&#34;:1.0,&#34;b&#34;:1.0,&#34;a&#34;:1.0},&#34;position&#34;:0.0},{&#34;color&#34;:{&#34;r&#34;:1.0,&#34;g&#34;:1.0,&#34;b&#34;:1.0,&#34;a&#34;:0.0},&#34;position&#34;:1.0}],&#34;stopsVar&#34;:[{&#34;color&#34;:{&#34;r&#34;:1.0,&#34;g&#34;:1.0,&#34;b&#34;:1.0,&#34;a&#34;:1.0},&#34;position&#34;:0.0},{&#34;color&#34;:{&#34;r&#34;:1.0,&#34;g&#34;:1.0,&#34;b&#34;:1.0,&#34;a&#34;:0.0},&#34;position&#34;:1.0}],&#34;transform&#34;:{&#34;m00&#34;:72.636360168457031,&#34;m01&#34;:-52.127265930175781,&#34;m02&#34;:-25.209095001220703,&#34;m10&#34;:52.127265930175781,&#34;m11&#34;:72.636360168457031,&#34;m12&#34;:-52.554542541503906},&#34;opacity&#34;:0.54000002145767212,&#34;blendMode&#34;:&#34;NORMAL&#34;,&#34;visible&#34;:true}"/>
<g clip-path="url(#clip0_2017_398)">
<path d="M31.3125 14.125H23.9917C23.751 14.125 23.5083 14.0677 23.2927 13.9604L20.0052 12.3166C19.6458 12.1364 19.2427 12.0416 18.8406 12.0416H15.6865C13.1031 12.0416 11 14.1448 11 16.7291V30.2708C11 32.8552 13.1031 34.9583 15.6875 34.9583H18.8125C19.1 34.9583 19.3333 34.725 19.3333 34.4375C19.3333 34.15 19.1 33.9166 18.8125 33.9166H15.6875C13.6771 33.9166 12.0417 32.2812 12.0417 30.2708V19.3333H34.9583V30.2708C34.9583 32.2812 33.3229 33.9166 31.3125 33.9166H28.1875C27.9 33.9166 27.6667 34.15 27.6667 34.4375C27.6667 34.725 27.9 34.9583 28.1875 34.9583H31.3125C33.8969 34.9583 36 32.8552 36 30.2708V18.8125C36 16.2281 33.8969 14.125 31.3125 14.125ZM12.0417 16.7291C12.0417 14.7187 13.6771 13.0833 15.6875 13.0833H18.8417C19.0823 13.0833 19.325 13.1406 19.5406 13.2479L22.8281 14.8916C23.1875 15.0718 23.5906 15.1666 23.9927 15.1666H31.3135C33.1469 15.1666 34.6687 16.527 34.9219 18.2916H12.0417V16.7291ZM27.575 31.677L24.9552 34.3541C24.5531 34.7562 24.0271 34.9573 23.501 34.9583H23.4979C22.9729 34.9583 22.4479 34.7583 22.0479 34.3583L19.424 31.677C19.2229 31.4718 19.2271 31.1416 19.4323 30.9406C19.6385 30.7416 19.9688 30.7437 20.1687 30.9489L22.7885 33.626C22.8469 33.6843 22.9104 33.7333 22.9792 33.7739V24.0208C22.9792 23.7333 23.2125 23.5 23.5 23.5C23.7875 23.5 24.0208 23.7333 24.0208 24.0208V33.7729C24.0896 33.7312 24.1552 33.6812 24.2156 33.6218L26.8312 30.9489C27.0323 30.7437 27.3625 30.7416 27.5677 30.9406C27.7729 31.1416 27.7771 31.4718 27.576 31.677H27.575Z" fill="white"/>
</g>
<defs>
<clipPath id="paint1_diamond_2017_398_clip_path"><rect width="47" height="47" rx="20"/></clipPath><linearGradient id="paint0_linear_2017_398" x1="28.1659" y1="-1.77072e-06" x2="72.0448" y2="57.5011" gradientUnits="userSpaceOnUse">
<stop offset="0.193005" stop-color="#3496FF"/>
<stop offset="0.711667" stop-color="#1170DC"/>
</linearGradient>
<linearGradient id="paint1_diamond_2017_398" x1="0" y1="0" x2="500" y2="500" gradientUnits="userSpaceOnUse">
<stop stop-color="white"/>
<stop offset="1" stop-color="white" stop-opacity="0"/>
</linearGradient>
<clipPath id="clip0_2017_398">
<rect width="25" height="25" fill="white" transform="translate(11 11)"/>
</clipPath>
</defs>
</svg>
