<svg width="55" height="55" viewBox="0 0 55 55" fill="none" xmlns="http://www.w3.org/2000/svg">
<rect width="55" height="55" rx="20" fill="white"/>
<rect width="55" height="55" rx="20" fill="url(#paint0_linear_4_104)"/>
<g clip-path="url(#paint1_diamond_4_104_clip_path)" data-figma-skip-parse="true"><g transform="matrix(0.0425 0.0305 -0.0305 0.0425 -17.5 11.5)"><rect x="0" y="0" width="1621.01" height="996.851" fill="url(#paint1_diamond_4_104)" opacity="0.54" shape-rendering="crispEdges"/><rect x="0" y="0" width="1621.01" height="996.851" transform="scale(1 -1)" fill="url(#paint1_diamond_4_104)" opacity="0.54" shape-rendering="crispEdges"/><rect x="0" y="0" width="1621.01" height="996.851" transform="scale(-1 1)" fill="url(#paint1_diamond_4_104)" opacity="0.54" shape-rendering="crispEdges"/><rect x="0" y="0" width="1621.01" height="996.851" transform="scale(-1)" fill="url(#paint1_diamond_4_104)" opacity="0.54" shape-rendering="crispEdges"/></g></g><rect width="55" height="55" rx="20" data-figma-gradient-fill="{&#34;type&#34;:&#34;GRADIENT_DIAMOND&#34;,&#34;stops&#34;:[{&#34;color&#34;:{&#34;r&#34;:1.0,&#34;g&#34;:1.0,&#34;b&#34;:1.0,&#34;a&#34;:1.0},&#34;position&#34;:0.0},{&#34;color&#34;:{&#34;r&#34;:1.0,&#34;g&#34;:1.0,&#34;b&#34;:1.0,&#34;a&#34;:0.0},&#34;position&#34;:1.0}],&#34;stopsVar&#34;:[{&#34;color&#34;:{&#34;r&#34;:1.0,&#34;g&#34;:1.0,&#34;b&#34;:1.0,&#34;a&#34;:1.0},&#34;position&#34;:0.0},{&#34;color&#34;:{&#34;r&#34;:1.0,&#34;g&#34;:1.0,&#34;b&#34;:1.0,&#34;a&#34;:0.0},&#34;position&#34;:1.0}],&#34;transform&#34;:{&#34;m00&#34;:84.999992370605469,&#34;m01&#34;:-60.999992370605469,&#34;m02&#34;:-29.500003814697266,&#34;m10&#34;:60.999992370605469,&#34;m11&#34;:84.999992370605469,&#34;m12&#34;:-61.499996185302734},&#34;opacity&#34;:0.54000002145767212,&#34;blendMode&#34;:&#34;NORMAL&#34;,&#34;visible&#34;:true}"/>
<path d="M27.5 16.7857C29.6191 16.7857 31.6906 17.4141 33.4525 18.5914C35.2145 19.7687 36.5878 21.442 37.3987 23.3998C38.2096 25.3576 38.4218 27.5119 38.0084 29.5903C37.595 31.6686 36.5746 33.5777 35.0761 35.0761C33.5777 36.5746 31.6686 37.595 29.5903 38.0084C27.5119 38.4218 25.3576 38.2096 23.3998 37.3987C21.442 36.5878 19.7687 35.2145 18.5914 33.4525C17.4141 31.6906 16.7857 29.6191 16.7857 27.5C16.7857 24.6584 17.9145 21.9332 19.9239 19.9239C21.9332 17.9145 24.6584 16.7857 27.5 16.7857ZM27.5 15C25.0277 15 22.611 15.7331 20.5554 17.1066C18.4998 18.4801 16.8976 20.4324 15.9515 22.7165C15.0054 25.0005 14.7579 27.5139 15.2402 29.9386C15.7225 32.3634 16.913 34.5907 18.6612 36.3388C20.4093 38.087 22.6366 39.2775 25.0614 39.7598C27.4861 40.2421 29.9995 39.9946 32.2835 39.0485C34.5676 38.1024 36.5199 36.5002 37.8934 34.4446C39.2669 32.389 40 29.9723 40 27.5C40 24.1848 38.683 21.0054 36.3388 18.6612C33.9946 16.317 30.8152 15 27.5 15Z" fill="white"/>
<path d="M27.4997 23.9283C28.2061 23.9283 28.8966 24.1378 29.4839 24.5302C30.0712 24.9226 30.529 25.4804 30.7993 26.133C31.0696 26.7856 31.1403 27.5037 31.0025 28.1965C30.8647 28.8893 30.5246 29.5256 30.0251 30.0251C29.5256 30.5246 28.8893 30.8647 28.1965 31.0025C27.5037 31.1403 26.7856 31.0696 26.133 30.7993C25.4804 30.529 24.9226 30.0712 24.5302 29.4839C24.1378 28.8966 23.9283 28.2061 23.9283 27.4997C23.9283 26.5525 24.3046 25.6441 24.9743 24.9743C25.6441 24.3046 26.5525 23.9283 27.4997 23.9283ZM27.4997 22.1426C26.4402 22.1426 25.4044 22.4568 24.5235 23.0454C23.6425 23.6341 22.9558 24.4707 22.5504 25.4496C22.1449 26.4285 22.0388 27.5057 22.2455 28.5448C22.4522 29.584 22.9624 30.5386 23.7117 31.2878C24.4609 32.037 25.4154 32.5472 26.4546 32.7539C27.4938 32.9606 28.5709 32.8545 29.5498 32.4491C30.5287 32.0436 31.3654 31.357 31.954 30.476C32.5427 29.595 32.8569 28.5593 32.8569 27.4997C32.8569 26.0789 32.2925 24.7163 31.2878 23.7116C30.2831 22.707 28.9205 22.1426 27.4997 22.1426Z" fill="white"/>
<defs>
<clipPath id="paint1_diamond_4_104_clip_path"><rect width="55" height="55" rx="20"/></clipPath><linearGradient id="paint0_linear_4_104" x1="32.96" y1="-2.07211e-06" x2="84.3077" y2="67.2886" gradientUnits="userSpaceOnUse">
<stop offset="0.193005" stop-color="#3496FF"/>
<stop offset="0.711667" stop-color="#1170DC"/>
</linearGradient>
<linearGradient id="paint1_diamond_4_104" x1="0" y1="0" x2="500" y2="500" gradientUnits="userSpaceOnUse">
<stop stop-color="white"/>
<stop offset="1" stop-color="white" stop-opacity="0"/>
</linearGradient>
</defs>
</svg>
