<svg width="55" height="55" viewBox="0 0 55 55" fill="none" xmlns="http://www.w3.org/2000/svg">
<rect width="55" height="55" rx="20" fill="white"/>
<rect width="55" height="55" rx="20" fill="url(#paint0_linear_2010_102)"/>
<g clip-path="url(#paint1_diamond_2010_102_clip_path)" data-figma-skip-parse="true"><g transform="matrix(0.0425 0.0305 -0.0305 0.0425 -17.5 11.5)"><rect x="0" y="0" width="1621.01" height="996.851" fill="url(#paint1_diamond_2010_102)" opacity="0.54" shape-rendering="crispEdges"/><rect x="0" y="0" width="1621.01" height="996.851" transform="scale(1 -1)" fill="url(#paint1_diamond_2010_102)" opacity="0.54" shape-rendering="crispEdges"/><rect x="0" y="0" width="1621.01" height="996.851" transform="scale(-1 1)" fill="url(#paint1_diamond_2010_102)" opacity="0.54" shape-rendering="crispEdges"/><rect x="0" y="0" width="1621.01" height="996.851" transform="scale(-1)" fill="url(#paint1_diamond_2010_102)" opacity="0.54" shape-rendering="crispEdges"/></g></g><rect width="55" height="55" rx="20" data-figma-gradient-fill="{&#34;type&#34;:&#34;GRADIENT_DIAMOND&#34;,&#34;stops&#34;:[{&#34;color&#34;:{&#34;r&#34;:1.0,&#34;g&#34;:1.0,&#34;b&#34;:1.0,&#34;a&#34;:1.0},&#34;position&#34;:0.0},{&#34;color&#34;:{&#34;r&#34;:1.0,&#34;g&#34;:1.0,&#34;b&#34;:1.0,&#34;a&#34;:0.0},&#34;position&#34;:1.0}],&#34;stopsVar&#34;:[{&#34;color&#34;:{&#34;r&#34;:1.0,&#34;g&#34;:1.0,&#34;b&#34;:1.0,&#34;a&#34;:1.0},&#34;position&#34;:0.0},{&#34;color&#34;:{&#34;r&#34;:1.0,&#34;g&#34;:1.0,&#34;b&#34;:1.0,&#34;a&#34;:0.0},&#34;position&#34;:1.0}],&#34;transform&#34;:{&#34;m00&#34;:84.999992370605469,&#34;m01&#34;:-60.999992370605469,&#34;m02&#34;:-29.500003814697266,&#34;m10&#34;:60.999992370605469,&#34;m11&#34;:84.999992370605469,&#34;m12&#34;:-61.499996185302734},&#34;opacity&#34;:0.54000002145767212,&#34;blendMode&#34;:&#34;NORMAL&#34;,&#34;visible&#34;:true}"/>
<path d="M34.7917 26.9791C34.7917 23.7875 34.7917 22.1913 33.7997 21.2002C32.8087 20.2083 31.2124 20.2083 28.0208 20.2083C24.8292 20.2083 23.233 20.2083 22.2419 21.2002C21.25 22.1913 21.25 23.7875 21.25 26.9791V32.0573C21.25 32.8554 21.25 33.254 21.498 33.502C21.746 33.75 22.1446 33.75 22.9427 33.75H28.0208C31.2124 33.75 32.8087 33.75 33.7997 32.7581C34.7917 31.767 34.7917 30.1707 34.7917 26.9791Z" stroke="white" stroke-width="1.5"/>
<path d="M25.4818 25.2864H30.56M25.4818 28.6719H28.0209" stroke="white" stroke-width="1.5" stroke-linecap="round" stroke-linejoin="round"/>
<defs>
<clipPath id="paint1_diamond_2010_102_clip_path"><rect width="55" height="55" rx="20"/></clipPath><linearGradient id="paint0_linear_2010_102" x1="32.96" y1="-2.07211e-06" x2="84.3077" y2="67.2886" gradientUnits="userSpaceOnUse">
<stop offset="0.193005" stop-color="#3496FF"/>
<stop offset="0.711667" stop-color="#1170DC"/>
</linearGradient>
<linearGradient id="paint1_diamond_2010_102" x1="0" y1="0" x2="500" y2="500" gradientUnits="userSpaceOnUse">
<stop stop-color="white"/>
<stop offset="1" stop-color="white" stop-opacity="0"/>
</linearGradient>
</defs>
</svg>
