<svg width="10" height="13" viewBox="0 0 10 13" fill="none" xmlns="http://www.w3.org/2000/svg">
<path d="M5 6.88235C6.33786 6.88235 7.55 7.35647 8.43929 8.01947C9.28429 8.65035 10 9.58788 10 10.5965C10 11.1502 9.77929 11.609 9.43143 11.9501C9.10429 12.272 8.67714 12.4808 8.23714 12.623C7.35786 12.9082 6.2 13 5 13C3.8 13 2.64214 12.9082 1.76286 12.623C1.32286 12.4808 0.895714 12.272 0.567857 11.9501C0.221428 11.6098 0 11.1509 0 10.5973C0 9.58865 0.715714 8.65112 1.56071 8.02024C2.45 7.35647 3.66214 6.88235 5 6.88235ZM5 0C5.75776 0 6.48449 0.322268 7.0203 0.895909C7.55612 1.46955 7.85714 2.24757 7.85714 3.05882C7.85714 3.87007 7.55612 4.6481 7.0203 5.22174C6.48449 5.79538 5.75776 6.11765 5 6.11765C4.24224 6.11765 3.51551 5.79538 2.97969 5.22174C2.44388 4.6481 2.14286 3.87007 2.14286 3.05882C2.14286 2.24757 2.44388 1.46955 2.97969 0.895909C3.51551 0.322268 4.24224 0 5 0Z" fill="#3D9AFF"/>
</svg>
