<svg width="55" height="55" viewBox="0 0 55 55" fill="none" xmlns="http://www.w3.org/2000/svg">
<rect width="55" height="55" rx="20" fill="white"/>
<rect width="55" height="55" rx="20" fill="url(#paint0_linear_2010_92)"/>
<g clip-path="url(#paint1_diamond_2010_92_clip_path)" data-figma-skip-parse="true"><g transform="matrix(0.0425 0.0305 -0.0305 0.0425 -17.5 11.5)"><rect x="0" y="0" width="1621.01" height="996.851" fill="url(#paint1_diamond_2010_92)" opacity="0.54" shape-rendering="crispEdges"/><rect x="0" y="0" width="1621.01" height="996.851" transform="scale(1 -1)" fill="url(#paint1_diamond_2010_92)" opacity="0.54" shape-rendering="crispEdges"/><rect x="0" y="0" width="1621.01" height="996.851" transform="scale(-1 1)" fill="url(#paint1_diamond_2010_92)" opacity="0.54" shape-rendering="crispEdges"/><rect x="0" y="0" width="1621.01" height="996.851" transform="scale(-1)" fill="url(#paint1_diamond_2010_92)" opacity="0.54" shape-rendering="crispEdges"/></g></g><rect width="55" height="55" rx="20" data-figma-gradient-fill="{&#34;type&#34;:&#34;GRADIENT_DIAMOND&#34;,&#34;stops&#34;:[{&#34;color&#34;:{&#34;r&#34;:1.0,&#34;g&#34;:1.0,&#34;b&#34;:1.0,&#34;a&#34;:1.0},&#34;position&#34;:0.0},{&#34;color&#34;:{&#34;r&#34;:1.0,&#34;g&#34;:1.0,&#34;b&#34;:1.0,&#34;a&#34;:0.0},&#34;position&#34;:1.0}],&#34;stopsVar&#34;:[{&#34;color&#34;:{&#34;r&#34;:1.0,&#34;g&#34;:1.0,&#34;b&#34;:1.0,&#34;a&#34;:1.0},&#34;position&#34;:0.0},{&#34;color&#34;:{&#34;r&#34;:1.0,&#34;g&#34;:1.0,&#34;b&#34;:1.0,&#34;a&#34;:0.0},&#34;position&#34;:1.0}],&#34;transform&#34;:{&#34;m00&#34;:84.999992370605469,&#34;m01&#34;:-60.999992370605469,&#34;m02&#34;:-29.500003814697266,&#34;m10&#34;:60.999992370605469,&#34;m11&#34;:84.999992370605469,&#34;m12&#34;:-61.499996185302734},&#34;opacity&#34;:0.54000002145767212,&#34;blendMode&#34;:&#34;NORMAL&#34;,&#34;visible&#34;:true}"/>
<path d="M31.6667 36.875L31.6667 36.125H31.6667V36.875ZM22.2917 36.875L22.2917 37.625H22.2917V36.875ZM19.1667 33.7083L18.4167 33.7083L19.1667 33.7083ZM19.1667 20.25L19.9167 20.25L19.1667 20.25ZM19.3795 18.164L18.7095 17.827L18.7095 17.827L19.3795 18.164ZM22.2917 17.0833L22.2917 17.8333L22.2917 17.0833ZM20.2331 17.299L19.889 16.6326L19.889 16.6326L20.2331 17.299ZM20.2331 36.6593L19.889 37.3257L19.889 37.3257L20.2331 36.6593ZM19.3795 35.7943L20.0496 35.4574L20.0496 35.4574L19.3795 35.7943ZM33.7252 36.6593L33.3812 35.9929L33.3812 35.9929L33.7252 36.6593ZM34.7917 33.7083L35.5417 33.7083V33.7083H34.7917ZM34.5788 35.7943L33.9087 35.4574L33.9087 35.4574L34.5788 35.7943ZM35.5417 23.0208C35.5417 22.6066 35.2059 22.2708 34.7917 22.2708C34.3775 22.2708 34.0417 22.6066 34.0417 23.0208H35.5417ZM28.9323 17.8333C29.3465 17.8333 29.6823 17.4975 29.6823 17.0833C29.6823 16.6691 29.3465 16.3333 28.9323 16.3333L28.9323 17.8333ZM34.625 22.8519L35.1588 22.3251L35.1588 22.3251L34.625 22.8519ZM29.099 17.2522L28.5652 17.7791L28.5652 17.7791L29.099 17.2522ZM34.5559 23.0208L34.5559 23.7708L34.5559 23.0208ZM29.9089 23.0208L29.9089 22.2708L29.9089 23.0208ZM28.9323 22.0312L29.6823 22.0312V22.0312H28.9323ZM28.9323 17.3222L28.1823 17.3222V17.3222H28.9323ZM23.0729 26.2291C22.6587 26.2291 22.3229 26.5649 22.3229 26.9791C22.3229 27.3934 22.6587 27.7291 23.0729 27.7291V26.2291ZM30.8854 27.7291C31.2996 27.7291 31.6354 27.3934 31.6354 26.9791C31.6354 26.5649 31.2996 26.2291 30.8854 26.2291V27.7291ZM23.0729 22.2708C22.6587 22.2708 22.3229 22.6066 22.3229 23.0208C22.3229 23.435 22.6587 23.7708 23.0729 23.7708V22.2708ZM25.026 23.7708C25.4403 23.7708 25.776 23.435 25.776 23.0208C25.776 22.6066 25.4403 22.2708 25.026 22.2708V23.7708ZM23.0729 30.1875C22.6587 30.1875 22.3229 30.5233 22.3229 30.9375C22.3229 31.3517 22.6587 31.6875 23.0729 31.6875V30.1875ZM30.8854 31.6875C31.2996 31.6875 31.6354 31.3517 31.6354 30.9375C31.6354 30.5233 31.2996 30.1875 30.8854 30.1875V31.6875ZM31.6667 36.125H22.2917V37.625H31.6667V36.125ZM19.9167 33.7083L19.9167 20.25L18.4167 20.25L18.4167 33.7083L19.9167 33.7083ZM19.9167 20.25C19.9167 19.6835 19.9172 19.3032 19.9408 19.0103C19.9638 18.7259 20.0047 18.5901 20.0496 18.5009L18.7095 17.827C18.5415 18.1612 18.476 18.5142 18.4457 18.8898C18.4161 19.257 18.4167 19.708 18.4167 20.25L19.9167 20.25ZM22.2917 16.3333C21.7573 16.3333 21.3108 16.3327 20.947 16.3628C20.5741 16.3937 20.2221 16.4606 19.889 16.6326L20.5772 17.9654C20.6618 17.9217 20.7922 17.8808 21.0707 17.8577C21.3583 17.8339 21.7322 17.8333 22.2917 17.8333L22.2917 16.3333ZM20.0496 18.5009C20.1663 18.2688 20.3516 18.0819 20.5772 17.9654L19.889 16.6326C19.3796 16.8956 18.9673 17.3143 18.7095 17.827L20.0496 18.5009ZM22.2917 36.125C21.7322 36.125 21.3583 36.1244 21.0707 36.1006C20.7922 36.0775 20.6618 36.0366 20.5772 35.9928L19.889 37.3257C20.2221 37.4977 20.5741 37.5646 20.947 37.5955C21.3108 37.6256 21.7573 37.625 22.2917 37.625L22.2917 36.125ZM18.4167 33.7083C18.4167 34.2503 18.4161 34.7013 18.4457 35.0685C18.476 35.4441 18.5415 35.7971 18.7095 36.1313L20.0496 35.4574C20.0047 35.3682 19.9638 35.2324 19.9408 34.9479C19.9172 34.6551 19.9167 34.2747 19.9167 33.7083L18.4167 33.7083ZM20.5772 35.9928C20.3516 35.8764 20.1663 35.6895 20.0496 35.4574L18.7095 36.1313C18.9673 36.644 19.3796 37.0627 19.889 37.3257L20.5772 35.9928ZM31.6667 37.625C32.2011 37.625 32.6475 37.6256 33.0114 37.5955C33.3842 37.5646 33.7362 37.4977 34.0693 37.3257L33.3812 35.9929C33.2965 36.0366 33.1661 36.0775 32.8876 36.1006C32.6 36.1244 32.2261 36.125 31.6667 36.125L31.6667 37.625ZM34.0417 33.7083C34.0417 34.2747 34.0411 34.6551 34.0175 34.948C33.9945 35.2324 33.9536 35.3682 33.9087 35.4574L35.2488 36.1313C35.4169 35.7971 35.4823 35.4441 35.5126 35.0685C35.5422 34.7013 35.5417 34.2503 35.5417 33.7083L34.0417 33.7083ZM34.0693 37.3257C34.5787 37.0627 34.991 36.644 35.2488 36.1313L33.9087 35.4574C33.792 35.6895 33.6068 35.8764 33.3812 35.9929L34.0693 37.3257ZM34.0417 23.0208V33.7083H35.5417V23.0208H34.0417ZM22.2917 17.8333L28.9323 17.8333L28.9323 16.3333L22.2917 16.3333L22.2917 17.8333ZM35.1588 22.3251L29.6328 16.7254L28.5652 17.7791L34.0911 23.3787L35.1588 22.3251ZM34.5559 22.2708L29.9089 22.2708L29.9089 23.7708L34.5559 23.7708L34.5559 22.2708ZM29.6823 22.0312V17.3222H28.1823V22.0312H29.6823ZM29.9089 22.2708C29.7931 22.2708 29.6823 22.1729 29.6823 22.0312L28.1823 22.0312C28.1823 22.9826 28.946 23.7708 29.9089 23.7708L29.9089 22.2708ZM29.6328 16.7254C29.0855 16.1708 28.1823 16.5846 28.1823 17.3222L29.6823 17.3222C29.6823 17.8835 28.9895 18.209 28.5652 17.7791L29.6328 16.7254ZM34.0911 23.3787C33.6995 22.9819 33.9565 22.2708 34.5559 22.2708L34.5559 23.7708C35.3293 23.7708 35.6734 22.8466 35.1588 22.3251L34.0911 23.3787ZM23.0729 27.7291H30.8854V26.2291H23.0729V27.7291ZM23.0729 23.7708H25.026V22.2708H23.0729V23.7708ZM23.0729 31.6875H30.8854V30.1875H23.0729V31.6875Z" fill="white"/>
<defs>
<clipPath id="paint1_diamond_2010_92_clip_path"><rect width="55" height="55" rx="20"/></clipPath><linearGradient id="paint0_linear_2010_92" x1="32.96" y1="-2.07211e-06" x2="84.3077" y2="67.2886" gradientUnits="userSpaceOnUse">
<stop offset="0.193005" stop-color="#3496FF"/>
<stop offset="0.711667" stop-color="#1170DC"/>
</linearGradient>
<linearGradient id="paint1_diamond_2010_92" x1="0" y1="0" x2="500" y2="500" gradientUnits="userSpaceOnUse">
<stop stop-color="white"/>
<stop offset="1" stop-color="white" stop-opacity="0"/>
</linearGradient>
</defs>
</svg>
