<svg width="47" height="47" viewBox="0 0 47 47" fill="none" xmlns="http://www.w3.org/2000/svg">
<rect width="47" height="47" rx="20" fill="white"/>
<rect width="47" height="47" rx="20" fill="url(#paint0_linear_2017_387)"/>
<g clip-path="url(#paint1_diamond_2017_387_clip_path)" data-figma-skip-parse="true"><g transform="matrix(0.0363182 0.0260636 -0.0260636 0.0363182 -14.9545 9.82727)"><rect x="0" y="0" width="1622.74" height="998.585" fill="url(#paint1_diamond_2017_387)" opacity="0.54" shape-rendering="crispEdges"/><rect x="0" y="0" width="1622.74" height="998.585" transform="scale(1 -1)" fill="url(#paint1_diamond_2017_387)" opacity="0.54" shape-rendering="crispEdges"/><rect x="0" y="0" width="1622.74" height="998.585" transform="scale(-1 1)" fill="url(#paint1_diamond_2017_387)" opacity="0.54" shape-rendering="crispEdges"/><rect x="0" y="0" width="1622.74" height="998.585" transform="scale(-1)" fill="url(#paint1_diamond_2017_387)" opacity="0.54" shape-rendering="crispEdges"/></g></g><rect width="47" height="47" rx="20" data-figma-gradient-fill="{&#34;type&#34;:&#34;GRADIENT_DIAMOND&#34;,&#34;stops&#34;:[{&#34;color&#34;:{&#34;r&#34;:1.0,&#34;g&#34;:1.0,&#34;b&#34;:1.0,&#34;a&#34;:1.0},&#34;position&#34;:0.0},{&#34;color&#34;:{&#34;r&#34;:1.0,&#34;g&#34;:1.0,&#34;b&#34;:1.0,&#34;a&#34;:0.0},&#34;position&#34;:1.0}],&#34;stopsVar&#34;:[{&#34;color&#34;:{&#34;r&#34;:1.0,&#34;g&#34;:1.0,&#34;b&#34;:1.0,&#34;a&#34;:1.0},&#34;position&#34;:0.0},{&#34;color&#34;:{&#34;r&#34;:1.0,&#34;g&#34;:1.0,&#34;b&#34;:1.0,&#34;a&#34;:0.0},&#34;position&#34;:1.0}],&#34;transform&#34;:{&#34;m00&#34;:72.636360168457031,&#34;m01&#34;:-52.127265930175781,&#34;m02&#34;:-25.209095001220703,&#34;m10&#34;:52.127265930175781,&#34;m11&#34;:72.636360168457031,&#34;m12&#34;:-52.554542541503906},&#34;opacity&#34;:0.54000002145767212,&#34;blendMode&#34;:&#34;NORMAL&#34;,&#34;visible&#34;:true}"/>
<g clip-path="url(#clip0_2017_387)">
<path d="M34.935 28.3129C36.352 29.7309 36.352 32.0389 34.935 33.4559L33.456 34.9349C32.769 35.6229 31.856 35.9999 30.885 35.9999C29.914 35.9999 29 35.6219 28.314 34.9349L24.689 31.3109C24.494 31.1159 24.494 30.7989 24.689 30.6039C24.884 30.4089 25.201 30.4089 25.396 30.6039L29.021 34.2279C30.017 35.2239 31.753 35.2239 32.75 34.2279L34.229 32.7489C35.256 31.7219 35.256 30.0489 34.229 29.0199L33.958 28.7489L32.093 30.6139C31.995 30.7119 31.867 30.7599 31.739 30.7599C31.611 30.7599 31.483 30.7109 31.385 30.6139C31.19 30.4189 31.19 30.1019 31.385 29.9069L33.25 28.0419L31.011 25.8029L29.147 27.6669C28.952 27.8619 28.635 27.8619 28.44 27.6669C28.245 27.4719 28.245 27.1549 28.44 26.9599L30.658 24.7419C30.853 24.5469 31.17 24.5469 31.365 24.7419L34.935 28.3129ZM16.689 23.3109C16.787 23.4089 16.915 23.4569 17.043 23.4569C17.171 23.4569 17.299 23.4079 17.397 23.3109C17.592 23.1159 17.592 22.7989 17.397 22.6039L13.772 18.9789C12.745 17.9509 12.745 16.2779 13.772 15.2499L15.251 13.7709C16.247 12.7749 17.983 12.7749 18.98 13.7709L19.501 14.2919L17.637 16.1559C17.442 16.3509 17.442 16.6679 17.637 16.8629C17.735 16.9609 17.863 17.0089 17.991 17.0089C18.119 17.0089 18.247 16.9599 18.345 16.8629L20.209 14.9989L22.198 16.9879L20.334 18.8519C20.139 19.0469 20.139 19.3639 20.334 19.5589C20.529 19.7539 20.846 19.7539 21.041 19.5589L23.259 17.3409C23.454 17.1459 23.454 16.8289 23.259 16.6339L19.686 13.0649C18.314 11.6909 15.918 11.6899 14.543 13.0649L13.064 14.5439C11.647 15.9609 11.647 18.2689 13.065 19.6869L16.689 23.3109ZM35.035 17.6219L18.335 34.3219C17.254 35.4039 15.815 35.9999 14.286 35.9999H12.5C12.224 35.9999 12 35.7759 12 35.4999V33.7149C12 32.1859 12.596 30.7469 13.678 29.6649L30.377 12.9649C31.661 11.6819 33.751 11.6819 35.035 12.9649C35.657 13.5869 36 14.4139 36 15.2939C36 16.1739 35.657 16.9999 35.035 17.6219ZM30.757 20.4859L27.514 17.2429L14.385 30.3719C13.492 31.2649 13 32.4519 13 33.7149V34.9999H14.286C15.549 34.9999 16.736 34.5079 17.628 33.6149L30.757 20.4859ZM35 15.2939C35 14.6809 34.762 14.1059 34.328 13.6719C33.434 12.7769 31.979 12.7769 31.084 13.6719L28.22 16.5359L31.463 19.7789L34.327 16.9149C34.761 16.4809 35 15.9059 35 15.2939Z" fill="white"/>
</g>
<defs>
<clipPath id="paint1_diamond_2017_387_clip_path"><rect width="47" height="47" rx="20"/></clipPath><linearGradient id="paint0_linear_2017_387" x1="28.1659" y1="-1.77072e-06" x2="72.0448" y2="57.5011" gradientUnits="userSpaceOnUse">
<stop offset="0.193005" stop-color="#3496FF"/>
<stop offset="0.711667" stop-color="#1170DC"/>
</linearGradient>
<linearGradient id="paint1_diamond_2017_387" x1="0" y1="0" x2="500" y2="500" gradientUnits="userSpaceOnUse">
<stop stop-color="white"/>
<stop offset="1" stop-color="white" stop-opacity="0"/>
</linearGradient>
<clipPath id="clip0_2017_387">
<rect width="24" height="24" fill="white" transform="translate(12 12)"/>
</clipPath>
</defs>
</svg>
