<svg width="82" height="59" viewBox="0 0 82 59" fill="none" xmlns="http://www.w3.org/2000/svg">
<path d="M0 0L82 5.57489e-07L82 59L-4.0112e-07 59L0 0Z" fill="url(#paint0_linear_1_482)"/>
<path d="M0 0L82 5.57489e-07L82 59L-4.0112e-07 59L0 0Z" fill="url(#paint1_linear_1_482)"/>
<g clip-path="url(#paint2_diamond_1_482_clip_path)" data-figma-skip-parse="true"><g transform="matrix(0.0603818 0.0262818 -0.0365273 0.0434455 -20.1273 41.3)"><rect x="0" y="0" width="1440.97" height="1469.18" fill="url(#paint2_diamond_1_482)" opacity="0.3" shape-rendering="crispEdges"/><rect x="0" y="0" width="1440.97" height="1469.18" transform="scale(1 -1)" fill="url(#paint2_diamond_1_482)" opacity="0.3" shape-rendering="crispEdges"/><rect x="0" y="0" width="1440.97" height="1469.18" transform="scale(-1 1)" fill="url(#paint2_diamond_1_482)" opacity="0.3" shape-rendering="crispEdges"/><rect x="0" y="0" width="1440.97" height="1469.18" transform="scale(-1)" fill="url(#paint2_diamond_1_482)" opacity="0.3" shape-rendering="crispEdges"/></g></g><path d="M0 0L82 5.57489e-07L82 59L-4.0112e-07 59L0 0Z" data-figma-gradient-fill="{&#34;type&#34;:&#34;GRADIENT_DIAMOND&#34;,&#34;stops&#34;:[{&#34;color&#34;:{&#34;r&#34;:1.0,&#34;g&#34;:1.0,&#34;b&#34;:1.0,&#34;a&#34;:1.0},&#34;position&#34;:0.0},{&#34;color&#34;:{&#34;r&#34;:1.0,&#34;g&#34;:1.0,&#34;b&#34;:1.0,&#34;a&#34;:0.0},&#34;position&#34;:1.0}],&#34;stopsVar&#34;:[{&#34;color&#34;:{&#34;r&#34;:1.0,&#34;g&#34;:1.0,&#34;b&#34;:1.0,&#34;a&#34;:1.0},&#34;position&#34;:0.0},{&#34;color&#34;:{&#34;r&#34;:1.0,&#34;g&#34;:1.0,&#34;b&#34;:1.0,&#34;a&#34;:0.0},&#34;position&#34;:1.0}],&#34;transform&#34;:{&#34;m00&#34;:120.76363372802734,&#34;m01&#34;:-73.054542541503906,&#34;m02&#34;:-43.981819152832031,&#34;m10&#34;:52.563632965087891,&#34;m11&#34;:86.890907287597656,&#34;m12&#34;:-28.427268981933594},&#34;opacity&#34;:0.30000001192092896,&#34;blendMode&#34;:&#34;NORMAL&#34;,&#34;visible&#34;:true}"/>
<defs>
<clipPath id="paint2_diamond_1_482_clip_path"><path d="M0 0L82 5.57489e-07L82 59L-4.0112e-07 59L0 0Z"/></clipPath><linearGradient id="paint0_linear_1_482" x1="41" y1="3.85739e-06" x2="144.568" y2="84.9941" gradientUnits="userSpaceOnUse">
<stop stop-color="#222222"/>
<stop offset="1" stop-color="#888888"/>
</linearGradient>
<linearGradient id="paint1_linear_1_482" x1="33.0278" y1="95" x2="-42.6017" y2="-4.66025" gradientUnits="userSpaceOnUse">
<stop stop-color="#FF6534"/>
<stop offset="1" stop-color="#FFD600"/>
</linearGradient>
<linearGradient id="paint2_diamond_1_482" x1="0" y1="0" x2="500" y2="500" gradientUnits="userSpaceOnUse">
<stop stop-color="white"/>
<stop offset="1" stop-color="white" stop-opacity="0"/>
</linearGradient>
</defs>
</svg>
